<?xml version="1.0" encoding="UTF-8"?>
<svg version="1.1" xmlns="http://www.w3.org/2000/svg" width="32" height="32">
<path d="M0 0 C1.65 0 3.3 0 5 0 C5 9.9 5 19.8 5 30 C3.35 30.33 1.7 30.66 0 31 C0 20.77 0 10.54 0 0 Z " fill="#171717" transform="translate(8,0)"/>
<path d="M0 0 C0 6.6 0 13.2 0 20 C-1.65 19.67 -3.3 19.34 -5 19 C-5 15.37 -5 11.74 -5 8 C-6.65 7.67 -8.3 7.34 -10 7 C-10 5.68 -10 4.36 -10 3 C-4.95833333 -1.23958333 -4.95833333 -1.23958333 0 0 Z " fill="#212121" transform="translate(24,11)"/>
</svg>
