<svg width="51" height="50" viewBox="0 0 51 50" fill="none" xmlns="http://www.w3.org/2000/svg">
<path fill-rule="evenodd" clip-rule="evenodd" d="M39.3558 35.3856C39.3558 35.3856 39.3262 35.3114 39.3558 35.2817C41.739 32.4314 43.308 28.9576 43.8409 25.2314C44.5218 20.57 43.5745 15.8047 41.1469 11.7816C38.7193 7.75849 34.9595 4.7152 30.5484 3.21583C26.1225 1.71645 21.3118 1.83521 16.9747 3.57211C12.6376 5.30902 9.04062 8.53045 6.82027 12.6871C4.59992 16.829 3.88941 21.6389 4.80715 26.2558C5.7249 30.8727 8.22649 35.0293 11.8531 37.9836C15.4944 40.9378 20.0388 42.4965 24.7163 42.3778L27.5879 42.3035L27.4399 36.5436L24.5683 36.6178C21.2673 36.692 18.0552 35.5935 15.4648 33.5003C12.8744 31.4071 11.0981 28.438 10.432 25.1275C9.76593 21.817 10.284 18.3729 11.8679 15.4187C13.4517 12.4496 16.0125 10.1634 19.0766 8.93127C22.1407 7.69911 25.5452 7.61004 28.6685 8.6789C30.1339 9.18364 31.5106 9.92591 32.7243 10.876L23.7393 22.203L20.0388 19.0112L16.7378 22.8562L24.287 29.3733L36.1437 14.6764C36.1437 14.6764 36.1881 14.7358 36.2029 14.7655C37.9348 17.6455 38.6157 21.0451 38.1272 24.3852C37.6387 27.7254 36.0105 30.7836 33.5237 33.0104L31.4958 34.8363L41.9462 47.826L46.4165 44.2037L39.3114 35.3708L39.3558 35.3856Z" fill="#8046F2"/>
</svg>
