<svg width="51" height="50" viewBox="0 0 51 50" fill="none" xmlns="http://www.w3.org/2000/svg">
<g clip-path="url(#clip0_131_636)">
<path fill-rule="evenodd" clip-rule="evenodd" d="M14.3639 18.7314C16.903 16.0654 20.5422 12.2851 25.4511 12.2851C29.9367 12.2851 32.9553 15.2896 35.706 18.0403C35.974 18.3083 36.2561 18.5763 36.5241 18.8443C37.7795 20.0715 39.7966 20.0574 41.0238 18.802L43.2526 16.5309L40.9815 14.3022C40.7699 14.0906 40.516 13.8367 40.248 13.5687C37.6949 10.9592 32.772 5.9375 25.4652 5.9375C17.707 5.9375 12.3609 11.608 10.0052 14.1047C9.90649 14.2035 9.82185 14.3022 9.73722 14.401L9.70901 14.4292L-0.291992 25.4317L4.41934 29.7057L14.3498 18.7314H14.3639Z" fill="#3DE2C2"/>
<path d="M29.2032 21.2141H20.7256V29.6917H29.2032V21.2141Z" fill="#3DE2C2"/>
<path fill-rule="evenodd" clip-rule="evenodd" d="M35.2827 32.2025C32.7436 34.8685 29.1044 38.6488 24.1955 38.6488C19.7099 38.6488 16.6913 35.6443 13.9406 32.8936C13.6726 32.6256 13.3905 32.3576 13.1225 32.0896C11.8671 30.8624 9.84996 30.8765 8.62276 32.1319L6.39404 34.403L8.66507 36.6317C8.87666 36.8433 9.13056 37.0972 9.39857 37.3652C11.9517 39.9747 16.8746 44.9964 24.1814 44.9964C31.9396 44.9964 37.2857 39.3259 39.6414 36.8292C39.7401 36.7304 39.8247 36.6317 39.9094 36.5329L39.9376 36.5047L49.9245 25.474L45.2132 21.2L35.2827 32.1743V32.2025Z" fill="#3DE2C2"/>
</g>
<defs>
<clipPath id="clip0_131_636">
<rect width="50" height="50" fill="white" transform="translate(0.166504)"/>
</clipPath>
</defs>
</svg>
