<svg width="51" height="50" viewBox="0 0 51 50" fill="none" xmlns="http://www.w3.org/2000/svg">
<path d="M30.3099 20.5558L21.228 20.6921L21.3575 29.3199L30.4394 29.1836L30.3099 20.5558Z" fill="#C43BF6"/>
<path fill-rule="evenodd" clip-rule="evenodd" d="M15.8078 46.8751C8.86582 46.9724 3.15655 41.7173 3.05923 35.116L2.96191 28.7255L9.77411 28.6282L9.87143 35.0187C9.92008 38.0355 12.5314 40.4522 15.7267 40.4035L22.4415 40.3062L22.5389 46.7778L15.824 46.8751H15.8078Z" fill="#C43BF6"/>
<path fill-rule="evenodd" clip-rule="evenodd" d="M2.75126 15.4417C2.65394 8.85655 8.20102 3.42301 15.143 3.30948L21.8578 3.21216L21.9552 9.68374L15.2403 9.78106C12.0613 9.82972 9.5148 12.3275 9.56346 15.3444L9.66077 21.7348L2.84858 21.8322L2.75126 15.4417Z" fill="#C43BF6"/>
<path fill-rule="evenodd" clip-rule="evenodd" d="M35.8561 3.00133C42.798 2.90401 48.5073 8.15914 48.6046 14.7605L48.702 21.151L41.8898 21.2483L41.7924 14.8578C41.7438 11.841 39.1324 9.42426 35.9372 9.47292L29.2223 9.57023L29.125 3.09865L35.8561 3.00133Z" fill="#C43BF6"/>
<path fill-rule="evenodd" clip-rule="evenodd" d="M48.8953 34.4186C48.9926 41.0199 43.4456 46.4534 36.5036 46.5508L29.7887 46.6481L29.6914 40.1765L36.4063 40.0792C39.5853 40.0305 42.1318 37.5327 42.0831 34.5159L41.9858 28.1254L48.798 28.0281L48.8953 34.4186Z" fill="#C43BF6"/>
</svg>
