<svg width="51" height="50" viewBox="0 0 51 50" fill="none" xmlns="http://www.w3.org/2000/svg">
<path d="M38.3809 15.4033C37.8081 13.8764 36.9898 12.5005 35.975 11.2756L41.5888 5.52036C38.921 2.78535 34.5839 2.78535 31.8997 5.52036L30.3285 7.13116C28.7246 6.49355 26.9897 6.10763 25.1567 6.10763C23.5855 6.10763 22.0634 6.3761 20.6395 6.86269L13.9455 0C11.2777 2.73501 11.2777 7.1815 13.9455 9.93329L14.7638 10.7722C13.5527 12.1146 12.5871 13.675 11.9324 15.4201H1.91602V21.7458H16.9242H17.1861C16.5805 16.7289 20.3776 12.4669 25.1567 12.4669C29.9357 12.4669 33.7328 16.7289 33.1272 21.7458H33.6019H49.1502V15.4201H38.3973L38.3809 15.4033Z" fill="#E81C79"/>
<path d="M33.6019 26.3767H33.1927V35.3704C33.1927 38.1389 31.7197 40.7229 29.3138 41.9814C23.209 45.1862 17.137 40.7397 17.137 34.8334V26.3935H16.9242H1.91602V32.7192H10.9504V34.8334C10.9504 35.4039 10.9831 35.9744 11.0486 36.5281H1.91602V42.8539H13.3072C16.9242 48.4581 24.2238 51.3609 31.687 47.9044C34.0438 46.8138 35.9587 45.0352 37.2844 42.8539H49.1666V36.5281H39.3302C39.3629 36.1422 39.3793 35.7563 39.3793 35.3536V32.736H49.1666V26.4103H33.6182L33.6019 26.3767Z" fill="#E81C79"/>
</svg>
